Coordinates
version=1
nRows=14
nColumns=24
inDegrees=yes

Units are S.I. units (second, meters, Newtons, ...)
Angles are in degrees.

endheader
time	pelvis_tilt	pelvis_list	pelvis_rotation	pelvis_tx	pelvis_ty	pelvis_tz	hip_flexion_r	hip_adduction_r	hip_rotation_r	knee_angle_r	ankle_angle_r	subtalar_angle_r	mtp_angle_r	hip_flexion_l	hip_adduction_l	hip_rotation_l	knee_angle_l	ankle_angle_l	subtalar_angle_l	mtp_angle_l	lumbar_extension	lumbar_bending	lumbar_rotation
      1.43433333	      0.82498924	      0.50688990	     -3.90988915	      0.27355528	      1.01875317	      0.26205353	     12.51088152	     -5.09237407	     -5.54915310	    -64.91886759	      5.82447630	     -2.85770131	      6.86674350	     10.20500797	      1.31665898	    -10.75112122	    -12.37553879	      0.93345975	    -11.31725773	     -1.58462792	    -12.84540841	     -3.16583678	      4.54842620
      1.43850000	      0.82951015	      0.40848858	     -3.61780682	      0.27838141	      1.01948870	      0.26125037	     13.05645381	     -4.96612274	     -5.89390399	    -64.69257860	      5.89621390	     -3.48466438	      6.68043343	      9.80875711	      1.31176292	    -10.51059986	    -12.17870551	      1.10124906	    -11.13416261	     -1.58963957	    -12.91217998	     -3.00681992	      4.23425123
      1.44266667	      0.90558714	      0.33828901	     -3.20320828	      0.28320977	      1.02028509	      0.26006157	     13.48073977	     -4.95556629	     -6.39762245	    -64.40736579	      6.11508294	     -3.89462629	      6.06148272	      9.34610291	      1.38074318	    -10.12748663	    -11.97188676	      1.23324740	    -11.02649010	     -1.62091293	    -13.06322845	     -2.81378587	      3.73796651
      1.44683333	      0.91326280	      0.27447225	     -2.99464577	      0.28798818	      1.02096499	      0.25943085	     14.03223993	     -4.85492916	     -6.66485660	    -64.09467296	      6.20146552	     -4.50910366	      5.90337542	      8.93161443	      1.38792374	     -9.99196244	    -11.74083943	      1.32898538	    -10.88405732	     -1.62732380	    -13.12767154	     -2.70670613	      3.62190989
      1.45100000	      0.95982637	      0.18018396	     -2.70357978	      0.29279251	      1.02170265	      0.25860331	     14.49160772	     -4.76398219	     -7.04185158	    -63.68819435	      6.29305476	     -5.04458542	      5.69209657	      8.48693654	      1.37681746	     -9.78600576	    -11.53106309	      1.47857647	    -10.67822697	     -1.63397726	    -13.23359711	     -2.53482218	      3.34930891
      1.45516667	      1.02722979	      0.09540027	     -2.40565136	      0.29757308	      1.02244904	      0.25773729	     14.91466345	     -4.69648619	     -7.42931168	    -63.22488710	      6.38923960	     -5.53354944	      5.46945285	      8.01704887	      1.37894348	     -9.55621503	    -11.30788829	      1.60311582	    -10.50444776	     -1.64158868	    -13.37172082	     -2.36734315	      3.06688998
      1.45933333	      1.12220646	     -0.00476044	     -2.09345028	      0.30237783	      1.02323425	      0.25683355	     15.27824161	     -4.62557478	     -7.84426158	    -62.68426362	      6.48446828	     -5.98144292	      5.21491020	      7.51468139	      1.36438401	     -9.31955523	    -11.08031138	      1.72145033	    -10.34241419	     -1.65121942	    -13.53129913	     -2.17650596	      2.76289167
      1.46350000	      1.20793697	     -0.09610693	     -1.79352049	      0.30717095	      1.02397650	      0.25595551	     15.64322561	     -4.56510341	     -8.24837659	    -62.09615159	      6.58367995	     -6.38195500	      4.95578593	      7.02006909	      1.35265472	     -9.08970292	    -10.84554898	      1.82982128	    -10.19051190	     -1.66163503	    -13.68136483	     -1.99737415	      2.48084972
      1.46766667	      1.31067489	     -0.20145630	     -1.48767080	      0.31195002	      1.02472894	      0.25508014	     15.96911555	     -4.49250185	     -8.66197948	    -61.44252450	      6.67772883	     -6.74809568	      4.68257767	      6.50952081	      1.32078994	     -8.85430384	    -10.61190235	      1.93735887	    -10.02899639	     -1.67233041	    -13.85274147	     -1.80269270	      2.18727198
      1.47183333	      1.42959483	     -0.30077153	     -1.18848218	      0.31671970	      1.02547799	      0.25420099	     16.26329688	     -4.43137293	     -9.07076177	    -60.73525499	      6.77075080	     -7.05795218	      4.37975934	      5.97724531	      1.29269523	     -8.61538566	    -10.36757864	      2.04124451	     -9.88518523	     -1.68440042	    -14.04462936	     -1.60626845	      1.88808542
      1.47600000	      1.53454156	     -0.39778561	     -0.89829093	      0.32150398	      1.02617603	      0.25333995	     16.55866237	     -4.37383600	     -9.47440354	    -59.98000443	      6.86123646	     -7.33292289	      4.07909044	      5.45981400	      1.26106358	     -8.39298844	    -10.12336882	      2.14494652	     -9.74521146	     -1.69613956	    -14.21487016	     -1.40220553	      1.61473083
      1.48016667	      1.66204903	     -0.49663912	     -0.60334196	      0.32627604	      1.02689126	      0.25250161	     16.80739906	     -4.31340994	     -9.88031875	    -59.16182843	      6.95731133	     -7.55023195	      3.74831308	      4.91876411	      1.22212933	     -8.15666208	     -9.87685014	      2.24023742	     -9.62000817	     -1.70838706	    -14.41115693	     -1.21977535	      1.31939648
      1.48433333	      1.78009748	     -0.58366283	     -0.32482220	      0.33104427	      1.02754519	      0.25169398	     17.05810676	     -4.26499619	    -10.27211645	    -58.30469923	      7.04702587	     -7.73755099	      3.42499861	      4.38861748	      1.18882441	     -7.94520045	     -9.63083589	      2.33874732	     -9.49897979	     -1.71965237	    -14.59425593	     -1.03961537	      1.05332773
      1.48850000	      1.83912133	     -0.63455894	     -0.01122492	      0.33581955	      1.02805210	      0.25076152	     17.35816690	     -4.28451118	    -10.70038857	    -57.43494727	      7.25121088	     -7.72792882	     -0.68641275	      3.92341749	      1.20700698	     -7.63888674	     -9.37684825	      2.40115134	     -9.49819446	     -1.91116075	    -14.70125498	     -0.88036237	      0.76501434
